<svg xmlns="http://www.w3.org/2000/svg" width="110" height="90" viewBox="0 0 110 90"><g id="emptyHeart" transform="translate(-450 -320)"><rect id="Rectangle_1" width="10" height="10" fill="red" data-name="Rectangle 1" transform="translate(450 340)"/><rect id="Rectangle_2" width="10" height="10" fill="red" data-name="Rectangle 2" transform="translate(460 330)"/><rect id="Rectangle_3" width="10" height="10" fill="red" data-name="Rectangle 3" transform="translate(480 320)"/><rect id="Rectangle_4" width="10" height="10" fill="red" data-name="Rectangle 4" transform="translate(490 330)"/><rect id="Rectangle_5" width="10" height="10" fill="red" data-name="Rectangle 5" transform="translate(500 340)"/><rect id="Rectangle_6" width="10" height="10" fill="red" data-name="Rectangle 6" transform="translate(510 330)"/><rect id="Rectangle_7" width="10" height="10" fill="red" data-name="Rectangle 7" transform="translate(520 320)"/><rect id="Rectangle_8" width="10" height="10" fill="red" data-name="Rectangle 8" transform="translate(530 320)"/><rect id="Rectangle_9" width="10" height="10" fill="red" data-name="Rectangle 9" transform="translate(470 320)"/><rect id="Rectangle_10" width="10" height="10" fill="red" data-name="Rectangle 10" transform="translate(540 330)"/><rect id="Rectangle_11" width="10" height="10" fill="red" data-name="Rectangle 11" transform="translate(550 340)"/><rect id="Rectangle_12" width="10" height="10" fill="red" data-name="Rectangle 12" transform="translate(450 350)"/><rect id="Rectangle_13" width="10" height="10" fill="red" data-name="Rectangle 13" transform="translate(550 350)"/><rect id="Rectangle_14" width="10" height="10" fill="red" data-name="Rectangle 14" transform="translate(460 360)"/><rect id="Rectangle_15" width="10" height="10" fill="red" data-name="Rectangle 15" transform="translate(470 370)"/><rect id="Rectangle_16" width="10" height="10" fill="red" data-name="Rectangle 16" transform="translate(480 380)"/><rect id="Rectangle_17" width="10" height="10" fill="red" data-name="Rectangle 17" transform="translate(490 390)"/><rect id="Rectangle_18" width="10" height="10" fill="red" data-name="Rectangle 18" transform="translate(500 400)"/><rect id="Rectangle_19" width="10" height="10" fill="red" data-name="Rectangle 19" transform="translate(510 390)"/><rect id="Rectangle_20" width="10" height="10" fill="red" data-name="Rectangle 20" transform="translate(520 380)"/><rect id="Rectangle_21" width="10" height="10" fill="red" data-name="Rectangle 21" transform="translate(530 370)"/><g id="Component_1_1" data-name="Component 1 – 1" transform="translate(540 360)"><rect id="Rectangle_22" width="10" height="10" fill="red" data-name="Rectangle 22"/></g></g></svg>