<svg xmlns="http://www.w3.org/2000/svg" width="1050" height="90" viewBox="0 0 1050 90"><g id="favoriteHearts" transform="translate(-530 -320)"><g id="favoriteHearts-2" data-name="favoriteHearts"><g id="emptyHeart" transform="translate(80)"><rect id="Rectangle_1" width="10" height="10" fill="red" data-name="Rectangle 1" transform="translate(450 340)"/><rect id="Rectangle_2" width="10" height="10" fill="red" data-name="Rectangle 2" transform="translate(460 330)"/><rect id="Rectangle_3" width="10" height="10" fill="red" data-name="Rectangle 3" transform="translate(480 320)"/><rect id="Rectangle_4" width="10" height="10" fill="red" data-name="Rectangle 4" transform="translate(490 330)"/><rect id="Rectangle_5" width="10" height="10" fill="red" data-name="Rectangle 5" transform="translate(500 340)"/><rect id="Rectangle_6" width="10" height="10" fill="red" data-name="Rectangle 6" transform="translate(510 330)"/><rect id="Rectangle_7" width="10" height="10" fill="red" data-name="Rectangle 7" transform="translate(520 320)"/><rect id="Rectangle_8" width="10" height="10" fill="red" data-name="Rectangle 8" transform="translate(530 320)"/><rect id="Rectangle_9" width="10" height="10" fill="red" data-name="Rectangle 9" transform="translate(470 320)"/><rect id="Rectangle_10" width="10" height="10" fill="red" data-name="Rectangle 10" transform="translate(540 330)"/><rect id="Rectangle_11" width="10" height="10" fill="red" data-name="Rectangle 11" transform="translate(550 340)"/><rect id="Rectangle_12" width="10" height="10" fill="red" data-name="Rectangle 12" transform="translate(450 350)"/><rect id="Rectangle_13" width="10" height="10" fill="red" data-name="Rectangle 13" transform="translate(550 350)"/><rect id="Rectangle_14" width="10" height="10" fill="red" data-name="Rectangle 14" transform="translate(460 360)"/><rect id="Rectangle_15" width="10" height="10" fill="red" data-name="Rectangle 15" transform="translate(470 370)"/><rect id="Rectangle_16" width="10" height="10" fill="red" data-name="Rectangle 16" transform="translate(480 380)"/><rect id="Rectangle_17" width="10" height="10" fill="red" data-name="Rectangle 17" transform="translate(490 390)"/><rect id="Rectangle_18" width="10" height="10" fill="red" data-name="Rectangle 18" transform="translate(500 400)"/><rect id="Rectangle_19" width="10" height="10" fill="red" data-name="Rectangle 19" transform="translate(510 390)"/><rect id="Rectangle_20" width="10" height="10" fill="red" data-name="Rectangle 20" transform="translate(520 380)"/><rect id="Rectangle_21" width="10" height="10" fill="red" data-name="Rectangle 21" transform="translate(530 370)"/><g id="Component_1_1" data-name="Component 1 – 1" transform="translate(540 360)"><rect id="Rectangle_22" width="10" height="10" fill="red" data-name="Rectangle 22"/></g></g><g id="heartTwo" transform="translate(110)"><g id="heartOne" transform="translate(120)"><rect id="Rectangle_1-2" width="10" height="10" fill="red" data-name="Rectangle 1" transform="translate(450 340)"/><rect id="Rectangle_2-2" width="10" height="10" fill="red" data-name="Rectangle 2" transform="translate(460 330)"/><rect id="Rectangle_3-2" width="10" height="10" fill="red" data-name="Rectangle 3" transform="translate(480 320)"/><rect id="Rectangle_4-2" width="10" height="10" fill="red" data-name="Rectangle 4" transform="translate(490 330)"/><rect id="Rectangle_5-2" width="10" height="10" fill="red" data-name="Rectangle 5" transform="translate(500 340)"/><rect id="Rectangle_6-2" width="10" height="10" fill="red" data-name="Rectangle 6" transform="translate(510 330)"/><rect id="Rectangle_7-2" width="10" height="10" fill="red" data-name="Rectangle 7" transform="translate(520 320)"/><rect id="Rectangle_8-2" width="10" height="10" fill="red" data-name="Rectangle 8" transform="translate(530 320)"/><rect id="Rectangle_9-2" width="10" height="10" fill="red" data-name="Rectangle 9" transform="translate(470 320)"/><rect id="Rectangle_10-2" width="10" height="10" fill="red" data-name="Rectangle 10" transform="translate(540 330)"/><rect id="Rectangle_11-2" width="10" height="10" fill="red" data-name="Rectangle 11" transform="translate(550 340)"/><rect id="Rectangle_12-2" width="10" height="10" fill="red" data-name="Rectangle 12" transform="translate(450 350)"/><rect id="Rectangle_13-2" width="10" height="10" fill="red" data-name="Rectangle 13" transform="translate(550 350)"/><rect id="Rectangle_14-2" width="10" height="10" fill="red" data-name="Rectangle 14" transform="translate(460 360)"/><rect id="Rectangle_15-2" width="10" height="10" fill="red" data-name="Rectangle 15" transform="translate(470 370)"/><rect id="Rectangle_16-2" width="10" height="10" fill="red" data-name="Rectangle 16" transform="translate(480 380)"/><rect id="Rectangle_17-2" width="10" height="10" fill="red" data-name="Rectangle 17" transform="translate(490 390)"/><rect id="Rectangle_18-2" width="10" height="10" fill="red" data-name="Rectangle 18" transform="translate(500 400)"/><rect id="Rectangle_19-2" width="10" height="10" fill="red" data-name="Rectangle 19" transform="translate(510 390)"/><rect id="Rectangle_20-2" width="10" height="10" fill="red" data-name="Rectangle 20" transform="translate(520 380)"/><rect id="Rectangle_21-2" width="10" height="10" fill="red" data-name="Rectangle 21" transform="translate(530 370)"/><g id="Component_1_2" data-name="Component 1 – 2" transform="translate(540 360)"><rect id="Rectangle_22-2" width="10" height="10" fill="red" data-name="Rectangle 22"/></g></g><g id="Component_1_3" data-name="Component 1 – 3" transform="translate(620 390)"><rect id="Rectangle_22-3" width="10" height="10" fill="red" data-name="Rectangle 22"/></g><g id="Component_1_4" data-name="Component 1 – 4" transform="translate(610 380)"><rect id="Rectangle_22-4" width="10" height="10" fill="red" data-name="Rectangle 22"/></g><g id="Component_1_5" data-name="Component 1 – 5" transform="translate(620 380)"><rect id="Rectangle_22-5" width="10" height="10" fill="red" data-name="Rectangle 22"/></g><g id="Component_1_6" data-name="Component 1 – 6" transform="translate(630 380)"><rect id="Rectangle_22-6" width="10" height="10" fill="red" data-name="Rectangle 22"/></g></g><g id="Group_1" data-name="Group 1" transform="translate(140)"><g id="heartTwo-2" data-name="heartTwo" transform="translate(120)"><g id="heartOne-2" data-name="heartOne" transform="translate(120)"><rect id="Rectangle_1-3" width="10" height="10" fill="red" data-name="Rectangle 1" transform="translate(450 340)"/><rect id="Rectangle_2-3" width="10" height="10" fill="red" data-name="Rectangle 2" transform="translate(460 330)"/><rect id="Rectangle_3-3" width="10" height="10" fill="red" data-name="Rectangle 3" transform="translate(480 320)"/><rect id="Rectangle_4-3" width="10" height="10" fill="red" data-name="Rectangle 4" transform="translate(490 330)"/><rect id="Rectangle_5-3" width="10" height="10" fill="red" data-name="Rectangle 5" transform="translate(500 340)"/><rect id="Rectangle_6-3" width="10" height="10" fill="red" data-name="Rectangle 6" transform="translate(510 330)"/><rect id="Rectangle_7-3" width="10" height="10" fill="red" data-name="Rectangle 7" transform="translate(520 320)"/><rect id="Rectangle_8-3" width="10" height="10" fill="red" data-name="Rectangle 8" transform="translate(530 320)"/><rect id="Rectangle_9-3" width="10" height="10" fill="red" data-name="Rectangle 9" transform="translate(470 320)"/><rect id="Rectangle_10-3" width="10" height="10" fill="red" data-name="Rectangle 10" transform="translate(540 330)"/><rect id="Rectangle_11-3" width="10" height="10" fill="red" data-name="Rectangle 11" transform="translate(550 340)"/><rect id="Rectangle_12-3" width="10" height="10" fill="red" data-name="Rectangle 12" transform="translate(450 350)"/><rect id="Rectangle_13-3" width="10" height="10" fill="red" data-name="Rectangle 13" transform="translate(550 350)"/><rect id="Rectangle_14-3" width="10" height="10" fill="red" data-name="Rectangle 14" transform="translate(460 360)"/><rect id="Rectangle_15-3" width="10" height="10" fill="red" data-name="Rectangle 15" transform="translate(470 370)"/><rect id="Rectangle_16-3" width="10" height="10" fill="red" data-name="Rectangle 16" transform="translate(480 380)"/><rect id="Rectangle_17-3" width="10" height="10" fill="red" data-name="Rectangle 17" transform="translate(490 390)"/><rect id="Rectangle_18-3" width="10" height="10" fill="red" data-name="Rectangle 18" transform="translate(500 400)"/><rect id="Rectangle_19-3" width="10" height="10" fill="red" data-name="Rectangle 19" transform="translate(510 390)"/><rect id="Rectangle_20-3" width="10" height="10" fill="red" data-name="Rectangle 20" transform="translate(520 380)"/><rect id="Rectangle_21-3" width="10" height="10" fill="red" data-name="Rectangle 21" transform="translate(530 370)"/><g id="Component_1_7" data-name="Component 1 – 7" transform="translate(540 360)"><rect id="Rectangle_22-7" width="10" height="10" fill="red" data-name="Rectangle 22"/></g></g><g id="Component_1_10" data-name="Component 1 – 10" transform="translate(630 370)"><rect id="Rectangle_22-8" width="10" height="10" fill="red" data-name="Rectangle 22"/></g><g id="Component_1_11" data-name="Component 1 – 11" transform="translate(640 370)"><rect id="Rectangle_22-9" width="10" height="10" fill="red" data-name="Rectangle 22"/></g></g><g id="Component_1_12" data-name="Component 1 – 12" transform="translate(730 380)"><rect id="Rectangle_22-10" width="10" height="10" fill="red" data-name="Rectangle 22"/></g><g id="Component_1_13" data-name="Component 1 – 13" transform="translate(740 390)"><rect id="Rectangle_22-11" width="10" height="10" fill="red" data-name="Rectangle 22"/></g><g id="Component_1_14" data-name="Component 1 – 14" transform="translate(740 380)"><rect id="Rectangle_22-12" width="10" height="10" fill="red" data-name="Rectangle 22"/></g><g id="Component_1_15" data-name="Component 1 – 15" transform="translate(750 380)"><rect id="Rectangle_22-13" width="10" height="10" fill="red" data-name="Rectangle 22"/></g><g id="Component_1_16" data-name="Component 1 – 16" transform="translate(720 370)"><rect id="Rectangle_22-14" width="10" height="10" fill="red" data-name="Rectangle 22"/></g><g id="Component_1_17" data-name="Component 1 – 17" transform="translate(730 370)"><rect id="Rectangle_22-15" width="10" height="10" fill="red" data-name="Rectangle 22"/></g><g id="Component_1_18" data-name="Component 1 – 18" transform="translate(740 370)"><rect id="Rectangle_22-16" width="10" height="10" fill="red" data-name="Rectangle 22"/></g><g id="Component_1_19" data-name="Component 1 – 19" transform="translate(780 340)"><rect id="Rectangle_22-17" width="10" height="10" fill="red" data-name="Rectangle 22"/></g></g><g id="Group_7" data-name="Group 7" transform="translate(170)"><g id="Group_2" data-name="Group 2" transform="translate(120)"><g id="heartTwo-3" data-name="heartTwo" transform="translate(120)"><g id="heartOne-3" data-name="heartOne" transform="translate(120)"><rect id="Rectangle_1-4" width="10" height="10" fill="red" data-name="Rectangle 1" transform="translate(450 340)"/><rect id="Rectangle_2-4" width="10" height="10" fill="red" data-name="Rectangle 2" transform="translate(460 330)"/><rect id="Rectangle_3-4" width="10" height="10" fill="red" data-name="Rectangle 3" transform="translate(480 320)"/><rect id="Rectangle_4-4" width="10" height="10" fill="red" data-name="Rectangle 4" transform="translate(490 330)"/><rect id="Rectangle_5-4" width="10" height="10" fill="red" data-name="Rectangle 5" transform="translate(500 340)"/><rect id="Rectangle_6-4" width="10" height="10" fill="red" data-name="Rectangle 6" transform="translate(510 330)"/><rect id="Rectangle_7-4" width="10" height="10" fill="red" data-name="Rectangle 7" transform="translate(520 320)"/><rect id="Rectangle_8-4" width="10" height="10" fill="red" data-name="Rectangle 8" transform="translate(530 320)"/><rect id="Rectangle_9-4" width="10" height="10" fill="red" data-name="Rectangle 9" transform="translate(470 320)"/><rect id="Rectangle_10-4" width="10" height="10" fill="red" data-name="Rectangle 10" transform="translate(540 330)"/><rect id="Rectangle_11-4" width="10" height="10" fill="red" data-name="Rectangle 11" transform="translate(550 340)"/><rect id="Rectangle_12-4" width="10" height="10" fill="red" data-name="Rectangle 12" transform="translate(450 350)"/><rect id="Rectangle_13-4" width="10" height="10" fill="red" data-name="Rectangle 13" transform="translate(550 350)"/><rect id="Rectangle_14-4" width="10" height="10" fill="red" data-name="Rectangle 14" transform="translate(460 360)"/><rect id="Rectangle_15-4" width="10" height="10" fill="red" data-name="Rectangle 15" transform="translate(470 370)"/><rect id="Rectangle_16-4" width="10" height="10" fill="red" data-name="Rectangle 16" transform="translate(480 380)"/><rect id="Rectangle_17-4" width="10" height="10" fill="red" data-name="Rectangle 17" transform="translate(490 390)"/><rect id="Rectangle_18-4" width="10" height="10" fill="red" data-name="Rectangle 18" transform="translate(500 400)"/><rect id="Rectangle_19-4" width="10" height="10" fill="red" data-name="Rectangle 19" transform="translate(510 390)"/><rect id="Rectangle_20-4" width="10" height="10" fill="red" data-name="Rectangle 20" transform="translate(520 380)"/><rect id="Rectangle_21-4" width="10" height="10" fill="red" data-name="Rectangle 21" transform="translate(530 370)"/><g id="Component_1_20" data-name="Component 1 – 20" transform="translate(540 360)"><rect id="Rectangle_22-18" width="10" height="10" fill="red" data-name="Rectangle 22"/></g></g><g id="Component_1_21" data-name="Component 1 – 21" transform="translate(590 360)"><rect id="Rectangle_22-19" width="10" height="10" fill="red" data-name="Rectangle 22"/></g></g><g id="Component_1_25" data-name="Component 1 – 25" transform="translate(750 370)"><rect id="Rectangle_22-20" width="10" height="10" fill="red" data-name="Rectangle 22"/></g><g id="Component_1_26" data-name="Component 1 – 26" transform="translate(760 370)"><rect id="Rectangle_22-21" width="10" height="10" fill="red" data-name="Rectangle 22"/></g><g id="Component_1_27" data-name="Component 1 – 27" transform="translate(720 360)"><rect id="Rectangle_22-22" width="10" height="10" fill="red" data-name="Rectangle 22"/></g><g id="Component_1_28" data-name="Component 1 – 28" transform="translate(730 360)"><rect id="Rectangle_22-23" width="10" height="10" fill="red" data-name="Rectangle 22"/></g><g id="Component_1_29" data-name="Component 1 – 29" transform="translate(740 360)"><rect id="Rectangle_22-24" width="10" height="10" fill="red" data-name="Rectangle 22"/></g><g id="Component_1_30" data-name="Component 1 – 30" transform="translate(750 360)"><rect id="Rectangle_22-25" width="10" height="10" fill="red" data-name="Rectangle 22"/></g><g id="Component_1_31" data-name="Component 1 – 31" transform="translate(760 360)"><rect id="Rectangle_22-26" width="10" height="10" fill="red" data-name="Rectangle 22"/></g></g><g id="Component_1_33" data-name="Component 1 – 33" transform="translate(860 370)"><rect id="Rectangle_22-27" width="10" height="10" fill="red" data-name="Rectangle 22"/></g><g id="Component_1_34" data-name="Component 1 – 34" transform="translate(850 370)"><rect id="Rectangle_22-28" width="10" height="10" fill="red" data-name="Rectangle 22"/></g><g id="Component_1_35" data-name="Component 1 – 35" transform="translate(840 370)"><rect id="Rectangle_22-29" width="10" height="10" fill="red" data-name="Rectangle 22"/></g><g id="Component_1_36" data-name="Component 1 – 36" transform="translate(850 380)"><rect id="Rectangle_22-30" width="10" height="10" fill="red" data-name="Rectangle 22"/></g><g id="Component_1_37" data-name="Component 1 – 37" transform="translate(860 390)"><rect id="Rectangle_22-31" width="10" height="10" fill="red" data-name="Rectangle 22"/></g><g id="Component_1_38" data-name="Component 1 – 38" transform="translate(860 380)"><rect id="Rectangle_22-32" width="10" height="10" fill="red" data-name="Rectangle 22"/></g><g id="Component_1_39" data-name="Component 1 – 39" transform="translate(870 380)"><rect id="Rectangle_22-33" width="10" height="10" fill="red" data-name="Rectangle 22"/></g><g id="Component_1_40" data-name="Component 1 – 40" transform="translate(890 360)"><rect id="Rectangle_22-34" width="10" height="10" fill="red" data-name="Rectangle 22"/></g></g><g id="Group_8" data-name="Group 8" transform="translate(200)"><g id="Group_3" data-name="Group 3" transform="translate(240)"><g id="heartTwo-4" data-name="heartTwo" transform="translate(120)"><g id="heartOne-4" data-name="heartOne" transform="translate(120)"><rect id="Rectangle_1-5" width="10" height="10" fill="red" data-name="Rectangle 1" transform="translate(450 340)"/><rect id="Rectangle_2-5" width="10" height="10" fill="red" data-name="Rectangle 2" transform="translate(460 330)"/><rect id="Rectangle_3-5" width="10" height="10" fill="red" data-name="Rectangle 3" transform="translate(480 320)"/><rect id="Rectangle_4-5" width="10" height="10" fill="red" data-name="Rectangle 4" transform="translate(490 330)"/><rect id="Rectangle_5-5" width="10" height="10" fill="red" data-name="Rectangle 5" transform="translate(500 340)"/><rect id="Rectangle_6-5" width="10" height="10" fill="red" data-name="Rectangle 6" transform="translate(510 330)"/><rect id="Rectangle_7-5" width="10" height="10" fill="red" data-name="Rectangle 7" transform="translate(520 320)"/><rect id="Rectangle_8-5" width="10" height="10" fill="red" data-name="Rectangle 8" transform="translate(530 320)"/><rect id="Rectangle_9-5" width="10" height="10" fill="red" data-name="Rectangle 9" transform="translate(470 320)"/><rect id="Rectangle_10-5" width="10" height="10" fill="red" data-name="Rectangle 10" transform="translate(540 330)"/><rect id="Rectangle_11-5" width="10" height="10" fill="red" data-name="Rectangle 11" transform="translate(550 340)"/><rect id="Rectangle_12-5" width="10" height="10" fill="red" data-name="Rectangle 12" transform="translate(450 350)"/><rect id="Rectangle_13-5" width="10" height="10" fill="red" data-name="Rectangle 13" transform="translate(550 350)"/><rect id="Rectangle_14-5" width="10" height="10" fill="red" data-name="Rectangle 14" transform="translate(460 360)"/><rect id="Rectangle_15-5" width="10" height="10" fill="red" data-name="Rectangle 15" transform="translate(470 370)"/><rect id="Rectangle_16-5" width="10" height="10" fill="red" data-name="Rectangle 16" transform="translate(480 380)"/><rect id="Rectangle_17-5" width="10" height="10" fill="red" data-name="Rectangle 17" transform="translate(490 390)"/><rect id="Rectangle_18-5" width="10" height="10" fill="red" data-name="Rectangle 18" transform="translate(500 400)"/><rect id="Rectangle_19-5" width="10" height="10" fill="red" data-name="Rectangle 19" transform="translate(510 390)"/><rect id="Rectangle_20-5" width="10" height="10" fill="red" data-name="Rectangle 20" transform="translate(520 380)"/><rect id="Rectangle_21-5" width="10" height="10" fill="red" data-name="Rectangle 21" transform="translate(530 370)"/><g id="Component_1_42" data-name="Component 1 – 42" transform="translate(540 360)"><rect id="Rectangle_22-35" width="10" height="10" fill="red" data-name="Rectangle 22"/></g></g><g id="Component_1_43" data-name="Component 1 – 43" transform="translate(610 350)"><rect id="Rectangle_22-36" width="10" height="10" fill="red" data-name="Rectangle 22"/></g><g id="Component_1_44" data-name="Component 1 – 44" transform="translate(600 350)"><rect id="Rectangle_22-37" width="10" height="10" fill="red" data-name="Rectangle 22"/></g><g id="Component_1_45" data-name="Component 1 – 45" transform="translate(640 350)"><rect id="Rectangle_22-38" width="10" height="10" fill="red" data-name="Rectangle 22"/></g></g><g id="Component_1_49" data-name="Component 1 – 49" transform="translate(720 360)"><rect id="Rectangle_22-39" width="10" height="10" fill="red" data-name="Rectangle 22"/></g><g id="Component_1_50" data-name="Component 1 – 50" transform="translate(730 360)"><rect id="Rectangle_22-40" width="10" height="10" fill="red" data-name="Rectangle 22"/></g><g id="Component_1_51" data-name="Component 1 – 51" transform="translate(740 360)"><rect id="Rectangle_22-41" width="10" height="10" fill="red" data-name="Rectangle 22"/></g><g id="Component_1_52" data-name="Component 1 – 52" transform="translate(750 360)"><rect id="Rectangle_22-42" width="10" height="10" fill="red" data-name="Rectangle 22"/></g><g id="Component_1_53" data-name="Component 1 – 53" transform="translate(750 350)"><rect id="Rectangle_22-43" width="10" height="10" fill="red" data-name="Rectangle 22"/></g><g id="Component_1_54" data-name="Component 1 – 54" transform="translate(740 350)"><rect id="Rectangle_22-44" width="10" height="10" fill="red" data-name="Rectangle 22"/></g></g><g id="Component_1_63" data-name="Component 1 – 63" transform="translate(940 350)"><rect id="Rectangle_22-45" width="10" height="10" fill="red" data-name="Rectangle 22"/></g><g id="Component_1_62" data-name="Component 1 – 62" transform="translate(950 350)"><rect id="Rectangle_22-46" width="10" height="10" fill="red" data-name="Rectangle 22"/></g><g id="Component_1_61" data-name="Component 1 – 61" transform="translate(960 370)"><rect id="Rectangle_22-47" width="10" height="10" fill="red" data-name="Rectangle 22"/></g><g id="Component_1_55" data-name="Component 1 – 55" transform="translate(970 370)"><rect id="Rectangle_22-48" width="10" height="10" fill="red" data-name="Rectangle 22"/></g><g id="Component_1_56" data-name="Component 1 – 56" transform="translate(980 370)"><rect id="Rectangle_22-49" width="10" height="10" fill="red" data-name="Rectangle 22"/></g><g id="Component_1_57" data-name="Component 1 – 57" transform="translate(990 370)"><rect id="Rectangle_22-50" width="10" height="10" fill="red" data-name="Rectangle 22"/></g><g id="Component_1_58" data-name="Component 1 – 58" transform="translate(1000 360)"><rect id="Rectangle_22-51" width="10" height="10" fill="red" data-name="Rectangle 22"/></g><g id="Component_1_59" data-name="Component 1 – 59" transform="translate(1010 350)"><rect id="Rectangle_22-52" width="10" height="10" fill="red" data-name="Rectangle 22"/></g><g id="Component_1_60" data-name="Component 1 – 60" transform="translate(1020 350)"><rect id="Rectangle_22-53" width="10" height="10" fill="red" data-name="Rectangle 22"/></g><g id="Component_1_64" data-name="Component 1 – 64" transform="translate(950 360)"><rect id="Rectangle_22-54" width="10" height="10" fill="red" data-name="Rectangle 22"/></g><g id="Component_1_65" data-name="Component 1 – 65" transform="translate(980 380)"><rect id="Rectangle_22-55" width="10" height="10" fill="red" data-name="Rectangle 22"/></g><g id="Component_1_66" data-name="Component 1 – 66" transform="translate(970 380)"><rect id="Rectangle_22-56" width="10" height="10" fill="red" data-name="Rectangle 22"/></g><g id="Component_1_67" data-name="Component 1 – 67" transform="translate(980 390)"><rect id="Rectangle_22-57" width="10" height="10" fill="red" data-name="Rectangle 22"/></g><g id="Component_1_68" data-name="Component 1 – 68" transform="translate(990 380)"><rect id="Rectangle_22-58" width="10" height="10" fill="red" data-name="Rectangle 22"/></g><g id="Component_1_69" data-name="Component 1 – 69" transform="translate(1000 370)"><rect id="Rectangle_22-59" width="10" height="10" fill="red" data-name="Rectangle 22"/></g><g id="Component_1_70" data-name="Component 1 – 70" transform="translate(1010 360)"><rect id="Rectangle_22-60" width="10" height="10" fill="red" data-name="Rectangle 22"/></g></g><g id="Group_9" data-name="Group 9" transform="translate(230)"><g id="Group_4" data-name="Group 4" transform="translate(360)"><g id="heartTwo-5" data-name="heartTwo" transform="translate(120)"><g id="heartOne-5" data-name="heartOne" transform="translate(120)"><rect id="Rectangle_1-6" width="10" height="10" fill="red" data-name="Rectangle 1" transform="translate(450 340)"/><rect id="Rectangle_2-6" width="10" height="10" fill="red" data-name="Rectangle 2" transform="translate(460 330)"/><rect id="Rectangle_3-6" width="10" height="10" fill="red" data-name="Rectangle 3" transform="translate(480 320)"/><rect id="Rectangle_4-6" width="10" height="10" fill="red" data-name="Rectangle 4" transform="translate(490 330)"/><rect id="Rectangle_5-6" width="10" height="10" fill="red" data-name="Rectangle 5" transform="translate(500 340)"/><rect id="Rectangle_6-6" width="10" height="10" fill="red" data-name="Rectangle 6" transform="translate(510 330)"/><rect id="Rectangle_7-6" width="10" height="10" fill="red" data-name="Rectangle 7" transform="translate(520 320)"/><rect id="Rectangle_8-6" width="10" height="10" fill="red" data-name="Rectangle 8" transform="translate(530 320)"/><rect id="Rectangle_9-6" width="10" height="10" fill="red" data-name="Rectangle 9" transform="translate(470 320)"/><rect id="Rectangle_10-6" width="10" height="10" fill="red" data-name="Rectangle 10" transform="translate(540 330)"/><rect id="Rectangle_11-6" width="10" height="10" fill="red" data-name="Rectangle 11" transform="translate(550 340)"/><rect id="Rectangle_12-6" width="10" height="10" fill="red" data-name="Rectangle 12" transform="translate(450 350)"/><rect id="Rectangle_13-6" width="10" height="10" fill="red" data-name="Rectangle 13" transform="translate(550 350)"/><rect id="Rectangle_14-6" width="10" height="10" fill="red" data-name="Rectangle 14" transform="translate(460 360)"/><rect id="Rectangle_15-6" width="10" height="10" fill="red" data-name="Rectangle 15" transform="translate(470 370)"/><rect id="Rectangle_16-6" width="10" height="10" fill="red" data-name="Rectangle 16" transform="translate(480 380)"/><rect id="Rectangle_17-6" width="10" height="10" fill="red" data-name="Rectangle 17" transform="translate(490 390)"/><rect id="Rectangle_18-6" width="10" height="10" fill="red" data-name="Rectangle 18" transform="translate(500 400)"/><rect id="Rectangle_19-6" width="10" height="10" fill="red" data-name="Rectangle 19" transform="translate(510 390)"/><rect id="Rectangle_20-6" width="10" height="10" fill="red" data-name="Rectangle 20" transform="translate(520 380)"/><rect id="Rectangle_21-6" width="10" height="10" fill="red" data-name="Rectangle 21" transform="translate(530 370)"/><g id="Component_1_71" data-name="Component 1 – 71" transform="translate(540 360)"><rect id="Rectangle_22-61" width="10" height="10" fill="red" data-name="Rectangle 22"/></g></g><g id="Component_1_72" data-name="Component 1 – 72" transform="translate(620 390)"><rect id="Rectangle_22-62" width="10" height="10" fill="red" data-name="Rectangle 22"/></g><g id="Component_1_73" data-name="Component 1 – 73" transform="translate(610 380)"><rect id="Rectangle_22-63" width="10" height="10" fill="red" data-name="Rectangle 22"/></g><g id="Component_1_74" data-name="Component 1 – 74" transform="translate(620 380)"><rect id="Rectangle_22-64" width="10" height="10" fill="red" data-name="Rectangle 22"/></g><g id="Component_1_75" data-name="Component 1 – 75" transform="translate(630 380)"><rect id="Rectangle_22-65" width="10" height="10" fill="red" data-name="Rectangle 22"/></g></g><g id="Component_1_76" data-name="Component 1 – 76" transform="translate(700 340)"><rect id="Rectangle_22-66" width="10" height="10" fill="red" data-name="Rectangle 22"/></g><g id="Component_1_77" data-name="Component 1 – 77" transform="translate(710 340)"><rect id="Rectangle_22-67" width="10" height="10" fill="red" data-name="Rectangle 22"/></g><g id="Component_1_78" data-name="Component 1 – 78" transform="translate(720 340)"><rect id="Rectangle_22-68" width="10" height="10" fill="red" data-name="Rectangle 22"/></g><g id="Component_1_79" data-name="Component 1 – 79" transform="translate(730 340)"><rect id="Rectangle_22-69" width="10" height="10" fill="red" data-name="Rectangle 22"/></g><g id="Component_1_80" data-name="Component 1 – 80" transform="translate(750 340)"><rect id="Rectangle_22-70" width="10" height="10" fill="red" data-name="Rectangle 22"/></g><g id="Component_1_81" data-name="Component 1 – 81" transform="translate(760 340)"><rect id="Rectangle_22-71" width="10" height="10" fill="red" data-name="Rectangle 22"/></g><g id="Component_1_82" data-name="Component 1 – 82" transform="translate(770 340)"><rect id="Rectangle_22-72" width="10" height="10" fill="red" data-name="Rectangle 22"/></g><g id="Component_1_83" data-name="Component 1 – 83" transform="translate(780 340)"><rect id="Rectangle_22-73" width="10" height="10" fill="red" data-name="Rectangle 22"/></g></g><g id="Component_1_84" data-name="Component 1 – 84" transform="translate(1060 350)"><rect id="Rectangle_22-74" width="10" height="10" fill="red" data-name="Rectangle 22"/></g><g id="Component_1_85" data-name="Component 1 – 85" transform="translate(1070 350)"><rect id="Rectangle_22-75" width="10" height="10" fill="red" data-name="Rectangle 22"/></g><g id="Component_1_86" data-name="Component 1 – 86" transform="translate(1080 350)"><rect id="Rectangle_22-76" width="10" height="10" fill="red" data-name="Rectangle 22"/></g><g id="Component_1_87" data-name="Component 1 – 87" transform="translate(1090 350)"><rect id="Rectangle_22-77" width="10" height="10" fill="red" data-name="Rectangle 22"/></g><g id="Component_1_91" data-name="Component 1 – 91" transform="translate(1100 350)"><rect id="Rectangle_22-78" width="10" height="10" fill="red" data-name="Rectangle 22"/></g><g id="Component_1_93" data-name="Component 1 – 93" transform="translate(1110 350)"><rect id="Rectangle_22-79" width="10" height="10" fill="red" data-name="Rectangle 22"/></g><g id="Component_1_95" data-name="Component 1 – 95" transform="translate(1120 350)"><rect id="Rectangle_22-80" width="10" height="10" fill="red" data-name="Rectangle 22"/></g><g id="Component_1_97" data-name="Component 1 – 97" transform="translate(1130 350)"><rect id="Rectangle_22-81" width="10" height="10" fill="red" data-name="Rectangle 22"/></g><g id="Component_1_99" data-name="Component 1 – 99" transform="translate(1140 350)"><rect id="Rectangle_22-82" width="10" height="10" fill="red" data-name="Rectangle 22"/></g><g id="Component_1_88" data-name="Component 1 – 88" transform="translate(1070 360)"><rect id="Rectangle_22-83" width="10" height="10" fill="red" data-name="Rectangle 22"/></g><g id="Component_1_89" data-name="Component 1 – 89" transform="translate(1080 360)"><rect id="Rectangle_22-84" width="10" height="10" fill="red" data-name="Rectangle 22"/></g><g id="Component_1_90" data-name="Component 1 – 90" transform="translate(1090 360)"><rect id="Rectangle_22-85" width="10" height="10" fill="red" data-name="Rectangle 22"/></g><g id="Component_1_92" data-name="Component 1 – 92" transform="translate(1100 360)"><rect id="Rectangle_22-86" width="10" height="10" fill="red" data-name="Rectangle 22"/></g><g id="Component_1_94" data-name="Component 1 – 94" transform="translate(1110 360)"><rect id="Rectangle_22-87" width="10" height="10" fill="red" data-name="Rectangle 22"/></g><g id="Component_1_96" data-name="Component 1 – 96" transform="translate(1120 360)"><rect id="Rectangle_22-88" width="10" height="10" fill="red" data-name="Rectangle 22"/></g><g id="Component_1_98" data-name="Component 1 – 98" transform="translate(1130 360)"><rect id="Rectangle_22-89" width="10" height="10" fill="red" data-name="Rectangle 22"/></g><g id="Component_1_100" data-name="Component 1 – 100" transform="translate(1080 370)"><rect id="Rectangle_22-90" width="10" height="10" fill="red" data-name="Rectangle 22"/></g><g id="Component_1_101" data-name="Component 1 – 101" transform="translate(1090 370)"><rect id="Rectangle_22-91" width="10" height="10" fill="red" data-name="Rectangle 22"/></g><g id="Component_1_102" data-name="Component 1 – 102" transform="translate(1100 370)"><rect id="Rectangle_22-92" width="10" height="10" fill="red" data-name="Rectangle 22"/></g><g id="Component_1_103" data-name="Component 1 – 103" transform="translate(1110 370)"><rect id="Rectangle_22-93" width="10" height="10" fill="red" data-name="Rectangle 22"/></g><g id="Component_1_104" data-name="Component 1 – 104" transform="translate(1120 370)"><rect id="Rectangle_22-94" width="10" height="10" fill="red" data-name="Rectangle 22"/></g></g><g id="Group_23" data-name="Group 23" transform="translate(320)"><g id="Group_10" data-name="Group 10" transform="translate(-60)"><g id="Group_5" data-name="Group 5" transform="translate(480)"><g id="heartTwo-6" data-name="heartTwo" transform="translate(120)"><g id="heartOne-6" data-name="heartOne" transform="translate(120)"><rect id="Rectangle_1-7" width="10" height="10" fill="red" data-name="Rectangle 1" transform="translate(450 340)"/><rect id="Rectangle_2-7" width="10" height="10" fill="red" data-name="Rectangle 2" transform="translate(460 330)"/><rect id="Rectangle_3-7" width="10" height="10" fill="red" data-name="Rectangle 3" transform="translate(480 320)"/><rect id="Rectangle_4-7" width="10" height="10" fill="red" data-name="Rectangle 4" transform="translate(490 330)"/><rect id="Rectangle_5-7" width="10" height="10" fill="red" data-name="Rectangle 5" transform="translate(500 340)"/><rect id="Rectangle_6-7" width="10" height="10" fill="red" data-name="Rectangle 6" transform="translate(510 330)"/><rect id="Rectangle_7-7" width="10" height="10" fill="red" data-name="Rectangle 7" transform="translate(520 320)"/><rect id="Rectangle_8-7" width="10" height="10" fill="red" data-name="Rectangle 8" transform="translate(530 320)"/><rect id="Rectangle_9-7" width="10" height="10" fill="red" data-name="Rectangle 9" transform="translate(470 320)"/><rect id="Rectangle_10-7" width="10" height="10" fill="red" data-name="Rectangle 10" transform="translate(540 330)"/><rect id="Rectangle_11-7" width="10" height="10" fill="red" data-name="Rectangle 11" transform="translate(550 340)"/><rect id="Rectangle_12-7" width="10" height="10" fill="red" data-name="Rectangle 12" transform="translate(450 350)"/><rect id="Rectangle_13-7" width="10" height="10" fill="red" data-name="Rectangle 13" transform="translate(550 350)"/><rect id="Rectangle_14-7" width="10" height="10" fill="red" data-name="Rectangle 14" transform="translate(460 360)"/><rect id="Rectangle_15-7" width="10" height="10" fill="red" data-name="Rectangle 15" transform="translate(470 370)"/><rect id="Rectangle_16-7" width="10" height="10" fill="red" data-name="Rectangle 16" transform="translate(480 380)"/><rect id="Rectangle_17-7" width="10" height="10" fill="red" data-name="Rectangle 17" transform="translate(490 390)"/><rect id="Rectangle_18-7" width="10" height="10" fill="red" data-name="Rectangle 18" transform="translate(500 400)"/><rect id="Rectangle_19-7" width="10" height="10" fill="red" data-name="Rectangle 19" transform="translate(510 390)"/><rect id="Rectangle_20-7" width="10" height="10" fill="red" data-name="Rectangle 20" transform="translate(520 380)"/><rect id="Rectangle_21-7" width="10" height="10" fill="red" data-name="Rectangle 21" transform="translate(530 370)"/><g id="Component_1_105" data-name="Component 1 – 105" transform="translate(540 360)"><rect id="Rectangle_22-95" width="10" height="10" fill="red" data-name="Rectangle 22"/></g></g><g id="Component_1_106" data-name="Component 1 – 106" transform="translate(590 330)"><rect id="Rectangle_22-96" width="10" height="10" fill="red" data-name="Rectangle 22"/></g><g id="Component_1_107" data-name="Component 1 – 107" transform="translate(600 330)"><rect id="Rectangle_22-97" width="10" height="10" fill="red" data-name="Rectangle 22"/></g><g id="Component_1_108" data-name="Component 1 – 108" transform="translate(640 330)"><rect id="Rectangle_22-98" width="10" height="10" fill="red" data-name="Rectangle 22"/></g><g id="Component_1_109" data-name="Component 1 – 109" transform="translate(650 330)"><rect id="Rectangle_22-99" width="10" height="10" fill="red" data-name="Rectangle 22"/></g></g><g id="Component_1_110" data-name="Component 1 – 110" transform="translate(700 340)"><rect id="Rectangle_22-100" width="10" height="10" fill="red" data-name="Rectangle 22"/></g><g id="Component_1_111" data-name="Component 1 – 111" transform="translate(710 340)"><rect id="Rectangle_22-101" width="10" height="10" fill="red" data-name="Rectangle 22"/></g><g id="Component_1_112" data-name="Component 1 – 112" transform="translate(720 340)"><rect id="Rectangle_22-102" width="10" height="10" fill="red" data-name="Rectangle 22"/></g><g id="Component_1_113" data-name="Component 1 – 113" transform="translate(730 340)"><rect id="Rectangle_22-103" width="10" height="10" fill="red" data-name="Rectangle 22"/></g><g id="Component_1_114" data-name="Component 1 – 114" transform="translate(750 340)"><rect id="Rectangle_22-104" width="10" height="10" fill="red" data-name="Rectangle 22"/></g><g id="Component_1_115" data-name="Component 1 – 115" transform="translate(760 340)"><rect id="Rectangle_22-105" width="10" height="10" fill="red" data-name="Rectangle 22"/></g><g id="Component_1_116" data-name="Component 1 – 116" transform="translate(770 340)"><rect id="Rectangle_22-106" width="10" height="10" fill="red" data-name="Rectangle 22"/></g><g id="Component_1_117" data-name="Component 1 – 117" transform="translate(780 340)"><rect id="Rectangle_22-107" width="10" height="10" fill="red" data-name="Rectangle 22"/></g></g><g id="Component_1_118" data-name="Component 1 – 118" transform="translate(1180 350)"><rect id="Rectangle_22-108" width="10" height="10" fill="red" data-name="Rectangle 22"/></g><g id="Component_1_119" data-name="Component 1 – 119" transform="translate(1190 350)"><rect id="Rectangle_22-109" width="10" height="10" fill="red" data-name="Rectangle 22"/></g><g id="Component_1_120" data-name="Component 1 – 120" transform="translate(1200 350)"><rect id="Rectangle_22-110" width="10" height="10" fill="red" data-name="Rectangle 22"/></g><g id="Component_1_123" data-name="Component 1 – 123" transform="translate(1210 350)"><rect id="Rectangle_22-111" width="10" height="10" fill="red" data-name="Rectangle 22"/></g><g id="Component_1_127" data-name="Component 1 – 127" transform="translate(1220 350)"><rect id="Rectangle_22-112" width="10" height="10" fill="red" data-name="Rectangle 22"/></g><g id="Component_1_130" data-name="Component 1 – 130" transform="translate(1230 350)"><rect id="Rectangle_22-113" width="10" height="10" fill="red" data-name="Rectangle 22"/></g><g id="Component_1_133" data-name="Component 1 – 133" transform="translate(1240 350)"><rect id="Rectangle_22-114" width="10" height="10" fill="red" data-name="Rectangle 22"/></g><g id="Component_1_136" data-name="Component 1 – 136" transform="translate(1250 350)"><rect id="Rectangle_22-115" width="10" height="10" fill="red" data-name="Rectangle 22"/></g><g id="Component_1_138" data-name="Component 1 – 138" transform="translate(1260 350)"><rect id="Rectangle_22-116" width="10" height="10" fill="red" data-name="Rectangle 22"/></g><g id="Component_1_121" data-name="Component 1 – 121" transform="translate(1190 360)"><rect id="Rectangle_22-117" width="10" height="10" fill="red" data-name="Rectangle 22"/></g><g id="Component_1_122" data-name="Component 1 – 122" transform="translate(1200 360)"><rect id="Rectangle_22-118" width="10" height="10" fill="red" data-name="Rectangle 22"/></g><g id="Component_1_124" data-name="Component 1 – 124" transform="translate(1210 360)"><rect id="Rectangle_22-119" width="10" height="10" fill="red" data-name="Rectangle 22"/></g><g id="Component_1_128" data-name="Component 1 – 128" transform="translate(1220 360)"><rect id="Rectangle_22-120" width="10" height="10" fill="red" data-name="Rectangle 22"/></g><g id="Component_1_131" data-name="Component 1 – 131" transform="translate(1230 360)"><rect id="Rectangle_22-121" width="10" height="10" fill="red" data-name="Rectangle 22"/></g><g id="Component_1_134" data-name="Component 1 – 134" transform="translate(1240 360)"><rect id="Rectangle_22-122" width="10" height="10" fill="red" data-name="Rectangle 22"/></g><g id="Component_1_137" data-name="Component 1 – 137" transform="translate(1250 360)"><rect id="Rectangle_22-123" width="10" height="10" fill="red" data-name="Rectangle 22"/></g><g id="Component_1_125" data-name="Component 1 – 125" transform="translate(1200 370)"><rect id="Rectangle_22-124" width="10" height="10" fill="red" data-name="Rectangle 22"/></g><g id="Component_1_126" data-name="Component 1 – 126" transform="translate(1210 370)"><rect id="Rectangle_22-125" width="10" height="10" fill="red" data-name="Rectangle 22"/></g><g id="Component_1_129" data-name="Component 1 – 129" transform="translate(1220 370)"><rect id="Rectangle_22-126" width="10" height="10" fill="red" data-name="Rectangle 22"/></g><g id="Component_1_132" data-name="Component 1 – 132" transform="translate(1230 370)"><rect id="Rectangle_22-127" width="10" height="10" fill="red" data-name="Rectangle 22"/></g><g id="Component_1_135" data-name="Component 1 – 135" transform="translate(1240 370)"><rect id="Rectangle_22-128" width="10" height="10" fill="red" data-name="Rectangle 22"/></g><g id="Component_1_139" data-name="Component 1 – 139" transform="translate(1210 380)"><rect id="Rectangle_22-129" width="10" height="10" fill="red" data-name="Rectangle 22"/></g><g id="Component_1_140" data-name="Component 1 – 140" transform="translate(1220 380)"><rect id="Rectangle_22-130" width="10" height="10" fill="red" data-name="Rectangle 22"/></g><g id="Component_1_141" data-name="Component 1 – 141" transform="translate(1230 380)"><rect id="Rectangle_22-131" width="10" height="10" fill="red" data-name="Rectangle 22"/></g></g><g id="Component_1_179" data-name="Component 1 – 179" transform="translate(1160 390)"><rect id="Rectangle_22-132" width="10" height="10" fill="red" data-name="Rectangle 22"/></g></g></g><g id="Component_1_624" data-name="Component 1 – 624" transform="translate(1540 340)"><rect id="Rectangle_22-133" width="10" height="10" fill="#121212" data-name="Rectangle 22"/></g><g id="Component_1_625" data-name="Component 1 – 625" transform="translate(1550 340)"><rect id="Rectangle_22-134" width="10" height="10" fill="#121212" data-name="Rectangle 22"/></g><g id="Component_1_626" data-name="Component 1 – 626" transform="translate(1560 340)"><rect id="Rectangle_22-135" width="10" height="10" fill="#121212" data-name="Rectangle 22"/></g><g id="Component_1_627" data-name="Component 1 – 627" transform="translate(1570 340)"><rect id="Rectangle_22-136" width="10" height="10" fill="#121212" data-name="Rectangle 22"/></g></g></svg>