<svg xmlns="http://www.w3.org/2000/svg" width="110" height="90" viewBox="0 0 110 90"><g id="favoriteHeartFull" transform="translate(-1110 -320)"><g id="Group_10" data-name="Group 10" transform="translate(-60)"><g id="Group_5" data-name="Group 5" transform="translate(480)"><g id="heartTwo" transform="translate(120)"><g id="heartOne" transform="translate(120)"><rect id="Rectangle_1" width="10" height="10" fill="red" data-name="Rectangle 1" transform="translate(450 340)"/><rect id="Rectangle_2" width="10" height="10" fill="red" data-name="Rectangle 2" transform="translate(460 330)"/><rect id="Rectangle_3" width="10" height="10" fill="red" data-name="Rectangle 3" transform="translate(480 320)"/><rect id="Rectangle_4" width="10" height="10" fill="red" data-name="Rectangle 4" transform="translate(490 330)"/><rect id="Rectangle_5" width="10" height="10" fill="red" data-name="Rectangle 5" transform="translate(500 340)"/><rect id="Rectangle_6" width="10" height="10" fill="red" data-name="Rectangle 6" transform="translate(510 330)"/><rect id="Rectangle_7" width="10" height="10" fill="red" data-name="Rectangle 7" transform="translate(520 320)"/><rect id="Rectangle_8" width="10" height="10" fill="red" data-name="Rectangle 8" transform="translate(530 320)"/><rect id="Rectangle_9" width="10" height="10" fill="red" data-name="Rectangle 9" transform="translate(470 320)"/><rect id="Rectangle_10" width="10" height="10" fill="red" data-name="Rectangle 10" transform="translate(540 330)"/><rect id="Rectangle_11" width="10" height="10" fill="red" data-name="Rectangle 11" transform="translate(550 340)"/><rect id="Rectangle_12" width="10" height="10" fill="red" data-name="Rectangle 12" transform="translate(450 350)"/><rect id="Rectangle_13" width="10" height="10" fill="red" data-name="Rectangle 13" transform="translate(550 350)"/><rect id="Rectangle_14" width="10" height="10" fill="red" data-name="Rectangle 14" transform="translate(460 360)"/><rect id="Rectangle_15" width="10" height="10" fill="red" data-name="Rectangle 15" transform="translate(470 370)"/><rect id="Rectangle_16" width="10" height="10" fill="red" data-name="Rectangle 16" transform="translate(480 380)"/><rect id="Rectangle_17" width="10" height="10" fill="red" data-name="Rectangle 17" transform="translate(490 390)"/><rect id="Rectangle_18" width="10" height="10" fill="red" data-name="Rectangle 18" transform="translate(500 400)"/><rect id="Rectangle_19" width="10" height="10" fill="red" data-name="Rectangle 19" transform="translate(510 390)"/><rect id="Rectangle_20" width="10" height="10" fill="red" data-name="Rectangle 20" transform="translate(520 380)"/><rect id="Rectangle_21" width="10" height="10" fill="red" data-name="Rectangle 21" transform="translate(530 370)"/><g id="Component_1_105" data-name="Component 1 – 105" transform="translate(540 360)"><rect id="Rectangle_22" width="10" height="10" fill="red" data-name="Rectangle 22"/></g></g><g id="Component_1_106" data-name="Component 1 – 106" transform="translate(590 330)"><rect id="Rectangle_22-2" width="10" height="10" fill="red" data-name="Rectangle 22"/></g><g id="Component_1_107" data-name="Component 1 – 107" transform="translate(600 330)"><rect id="Rectangle_22-3" width="10" height="10" fill="red" data-name="Rectangle 22"/></g><g id="Component_1_108" data-name="Component 1 – 108" transform="translate(640 330)"><rect id="Rectangle_22-4" width="10" height="10" fill="red" data-name="Rectangle 22"/></g><g id="Component_1_109" data-name="Component 1 – 109" transform="translate(650 330)"><rect id="Rectangle_22-5" width="10" height="10" fill="red" data-name="Rectangle 22"/></g></g><g id="Component_1_110" data-name="Component 1 – 110" transform="translate(700 340)"><rect id="Rectangle_22-6" width="10" height="10" fill="red" data-name="Rectangle 22"/></g><g id="Component_1_111" data-name="Component 1 – 111" transform="translate(710 340)"><rect id="Rectangle_22-7" width="10" height="10" fill="red" data-name="Rectangle 22"/></g><g id="Component_1_112" data-name="Component 1 – 112" transform="translate(720 340)"><rect id="Rectangle_22-8" width="10" height="10" fill="red" data-name="Rectangle 22"/></g><g id="Component_1_113" data-name="Component 1 – 113" transform="translate(730 340)"><rect id="Rectangle_22-9" width="10" height="10" fill="red" data-name="Rectangle 22"/></g><g id="Component_1_114" data-name="Component 1 – 114" transform="translate(750 340)"><rect id="Rectangle_22-10" width="10" height="10" fill="red" data-name="Rectangle 22"/></g><g id="Component_1_115" data-name="Component 1 – 115" transform="translate(760 340)"><rect id="Rectangle_22-11" width="10" height="10" fill="red" data-name="Rectangle 22"/></g><g id="Component_1_116" data-name="Component 1 – 116" transform="translate(770 340)"><rect id="Rectangle_22-12" width="10" height="10" fill="red" data-name="Rectangle 22"/></g><g id="Component_1_117" data-name="Component 1 – 117" transform="translate(780 340)"><rect id="Rectangle_22-13" width="10" height="10" fill="red" data-name="Rectangle 22"/></g></g><g id="Component_1_118" data-name="Component 1 – 118" transform="translate(1180 350)"><rect id="Rectangle_22-14" width="10" height="10" fill="red" data-name="Rectangle 22"/></g><g id="Component_1_119" data-name="Component 1 – 119" transform="translate(1190 350)"><rect id="Rectangle_22-15" width="10" height="10" fill="red" data-name="Rectangle 22"/></g><g id="Component_1_120" data-name="Component 1 – 120" transform="translate(1200 350)"><rect id="Rectangle_22-16" width="10" height="10" fill="red" data-name="Rectangle 22"/></g><g id="Component_1_123" data-name="Component 1 – 123" transform="translate(1210 350)"><rect id="Rectangle_22-17" width="10" height="10" fill="red" data-name="Rectangle 22"/></g><g id="Component_1_127" data-name="Component 1 – 127" transform="translate(1220 350)"><rect id="Rectangle_22-18" width="10" height="10" fill="red" data-name="Rectangle 22"/></g><g id="Component_1_130" data-name="Component 1 – 130" transform="translate(1230 350)"><rect id="Rectangle_22-19" width="10" height="10" fill="red" data-name="Rectangle 22"/></g><g id="Component_1_133" data-name="Component 1 – 133" transform="translate(1240 350)"><rect id="Rectangle_22-20" width="10" height="10" fill="red" data-name="Rectangle 22"/></g><g id="Component_1_136" data-name="Component 1 – 136" transform="translate(1250 350)"><rect id="Rectangle_22-21" width="10" height="10" fill="red" data-name="Rectangle 22"/></g><g id="Component_1_138" data-name="Component 1 – 138" transform="translate(1260 350)"><rect id="Rectangle_22-22" width="10" height="10" fill="red" data-name="Rectangle 22"/></g><g id="Component_1_121" data-name="Component 1 – 121" transform="translate(1190 360)"><rect id="Rectangle_22-23" width="10" height="10" fill="red" data-name="Rectangle 22"/></g><g id="Component_1_122" data-name="Component 1 – 122" transform="translate(1200 360)"><rect id="Rectangle_22-24" width="10" height="10" fill="red" data-name="Rectangle 22"/></g><g id="Component_1_124" data-name="Component 1 – 124" transform="translate(1210 360)"><rect id="Rectangle_22-25" width="10" height="10" fill="red" data-name="Rectangle 22"/></g><g id="Component_1_128" data-name="Component 1 – 128" transform="translate(1220 360)"><rect id="Rectangle_22-26" width="10" height="10" fill="red" data-name="Rectangle 22"/></g><g id="Component_1_131" data-name="Component 1 – 131" transform="translate(1230 360)"><rect id="Rectangle_22-27" width="10" height="10" fill="red" data-name="Rectangle 22"/></g><g id="Component_1_134" data-name="Component 1 – 134" transform="translate(1240 360)"><rect id="Rectangle_22-28" width="10" height="10" fill="red" data-name="Rectangle 22"/></g><g id="Component_1_137" data-name="Component 1 – 137" transform="translate(1250 360)"><rect id="Rectangle_22-29" width="10" height="10" fill="red" data-name="Rectangle 22"/></g><g id="Component_1_125" data-name="Component 1 – 125" transform="translate(1200 370)"><rect id="Rectangle_22-30" width="10" height="10" fill="red" data-name="Rectangle 22"/></g><g id="Component_1_126" data-name="Component 1 – 126" transform="translate(1210 370)"><rect id="Rectangle_22-31" width="10" height="10" fill="red" data-name="Rectangle 22"/></g><g id="Component_1_129" data-name="Component 1 – 129" transform="translate(1220 370)"><rect id="Rectangle_22-32" width="10" height="10" fill="red" data-name="Rectangle 22"/></g><g id="Component_1_132" data-name="Component 1 – 132" transform="translate(1230 370)"><rect id="Rectangle_22-33" width="10" height="10" fill="red" data-name="Rectangle 22"/></g><g id="Component_1_135" data-name="Component 1 – 135" transform="translate(1240 370)"><rect id="Rectangle_22-34" width="10" height="10" fill="red" data-name="Rectangle 22"/></g><g id="Component_1_139" data-name="Component 1 – 139" transform="translate(1210 380)"><rect id="Rectangle_22-35" width="10" height="10" fill="red" data-name="Rectangle 22"/></g><g id="Component_1_140" data-name="Component 1 – 140" transform="translate(1220 380)"><rect id="Rectangle_22-36" width="10" height="10" fill="red" data-name="Rectangle 22"/></g><g id="Component_1_141" data-name="Component 1 – 141" transform="translate(1230 380)"><rect id="Rectangle_22-37" width="10" height="10" fill="red" data-name="Rectangle 22"/></g></g><g id="Component_1_179" data-name="Component 1 – 179" transform="translate(1160 390)"><rect id="Rectangle_22-38" width="10" height="10" fill="red" data-name="Rectangle 22"/></g></g></svg>